# Blender v3.5.1 OBJ File: ''
# www.blender.org
mtllib round_hole_12.mtl
o round_hole_12
v 0.063000 0.063000 0.000000
v 0.021262 0.000000 0.000000
v 0.063000 0.063000 0.040000
v 0.021262 0.000000 0.040000
v 0.063000 -0.063000 0.000000
v 0.063000 -0.063000 0.040000
vt 0.000000 0.000000
vt 0.007557 0.000000
vt 0.000000 0.004000
vt 0.007557 0.004000
vt 0.000000 0.000000
vt 0.012600 0.000000
vt 0.000000 0.004000
vt 0.012600 0.004000
vt 0.000000 0.000000
vt 0.007557 0.000000
vt 0.000000 0.004000
vt 0.007557 0.004000
vt -0.000000 0.002087
vt -0.006300 -0.002087
vt 0.006300 -0.002087
vt 0.006300 -0.002087
vt 0.000000 0.002087
vt -0.006300 -0.002087
vn -0.8336 0.5523 0.0000
vn 1.0000 0.0000 0.0000
vn -0.8336 -0.5523 0.0000
vn -0.0000 0.0000 1.0000
vn 0.0000 0.0000 -1.0000
usemtl Steel_-_Satin.074
s 1
f 1/1/1 2/2/1 3/3/1
f 3/3/1 2/2/1 4/4/1
f 5/5/2 1/6/2 6/7/2
f 6/7/2 1/6/2 3/8/2
f 2/9/3 5/10/3 4/11/3
f 4/11/3 5/10/3 6/12/3
f 4/13/4 6/14/4 3/15/4
f 5/16/5 2/17/5 1/18/5
