# Blender v3.5.1 OBJ File: 'pegs_and_holes.blend'
# www.blender.org
mtllib triangle_peg.mtl
o triangle_peg.004
v -0.012000 0.020785 -0.000000
v -0.012000 -0.020785 -0.000000
v -0.012000 0.020785 0.100000
v -0.012000 -0.020785 0.100000
v 0.024000 0.000000 0.000000
v 0.024000 0.000000 0.100000
vt 0.000000 0.000000
vt 0.004157 0.000000
vt 0.000000 0.010000
vt 0.004157 0.010000
vt -0.000000 0.000000
vt 0.004157 0.000000
vt -0.000000 0.010000
vt 0.004157 0.010000
vt 0.000000 0.000000
vt 0.004157 0.000000
vt 0.000000 0.010000
vt 0.004157 0.010000
vt -0.002078 0.001800
vt 0.000000 -0.001800
vt 0.002078 0.001800
vt -0.000000 -0.001800
vt 0.002078 0.001800
vt -0.002078 0.001800
vn -1.0000 0.0000 -0.0000
vn 0.5000 0.8660 0.0000
vn 0.5000 -0.8660 0.0000
vn 0.0000 0.0000 1.0000
vn 0.0000 0.0000 -1.0000
usemtl Steel_-_Satin.121
s 1
f 1/1/1 2/2/1 3/3/1
f 3/3/1 2/2/1 4/4/1
f 5/5/2 1/6/2 6/7/2
f 6/7/2 1/6/2 3/8/2
f 2/9/3 5/10/3 4/11/3
f 4/11/3 5/10/3 6/12/3
f 4/13/4 6/14/4 3/15/4
f 5/16/5 2/17/5 1/18/5
