# Blender v3.5.1 OBJ File: ''
# www.blender.org
mtllib hexagon_peg.mtl
o hexagon_peg
v 0.000000 -0.023094 0.000000
v 0.020000 -0.011547 0.000000
v -0.000000 -0.023094 0.100000
v 0.020000 -0.011547 0.100000
v -0.020000 -0.011547 -0.000000
v -0.020000 -0.011547 0.100000
v -0.020000 0.011547 -0.000000
v -0.020000 0.011547 0.100000
v 0.000000 0.023094 0.000000
v -0.000000 0.023094 0.100000
v 0.020000 0.011547 0.000000
v 0.020000 0.011547 0.100000
vt 0.000000 0.000000
vt 0.002309 0.000000
vt 0.000000 0.010000
vt 0.002309 0.010000
vt 0.000000 0.000000
vt 0.002309 0.000000
vt 0.000000 0.010000
vt 0.002309 0.010000
vt 0.000000 0.000000
vt 0.002309 0.000000
vt 0.000000 0.010000
vt 0.002309 0.010000
vt 0.000000 0.000000
vt 0.002309 0.000000
vt 0.000000 0.010000
vt 0.002309 0.010000
vt 0.000000 0.000000
vt 0.002309 0.000000
vt 0.000000 0.010000
vt 0.002309 0.010000
vt 0.000000 0.000000
vt 0.002309 0.000000
vt 0.000000 0.010000
vt 0.002309 0.010000
vt -0.001155 -0.002000
vt 0.001155 -0.002000
vt -0.002309 0.000000
vt 0.002309 -0.000000
vt -0.001155 0.002000
vt 0.001155 0.002000
vt -0.001155 -0.002000
vt 0.001155 -0.002000
vt -0.002309 -0.000000
vt -0.001155 0.002000
vt 0.001155 0.002000
vn 0.5000 -0.8660 0.0000
vn -0.5000 -0.8660 -0.0000
vn -1.0000 0.0000 -0.0000
vn -0.5000 0.8660 -0.0000
vn 0.5000 0.8660 0.0000
vn 1.0000 0.0000 0.0000
vn 0.0000 0.0000 1.0000
vn 0.0000 0.0000 -1.0000
usemtl Steel_-_Satin.060
s 1
f 1/1/1 2/2/1 3/3/1
f 3/3/1 2/2/1 4/4/1
f 5/5/2 1/6/2 6/7/2
f 6/7/2 1/6/2 3/8/2
f 7/9/3 5/10/3 8/11/3
f 8/11/3 5/10/3 6/12/3
f 9/13/4 7/14/4 10/15/4
f 10/15/4 7/14/4 8/16/4
f 11/17/5 9/18/5 12/19/5
f 12/19/5 9/18/5 10/20/5
f 2/21/6 11/22/6 4/23/6
f 4/23/6 11/22/6 12/24/6
f 4/25/7 12/26/7 3/27/7
f 3/27/7 12/26/7 10/28/7
f 3/27/7 10/28/7 6/29/7
f 6/29/7 10/28/7 8/30/7
f 11/31/8 2/32/8 9/33/8
f 9/33/8 2/32/8 1/6/8
f 9/33/8 1/6/8 7/34/8
f 7/34/8 1/6/8 5/35/8
