# Blender v3.5.1 OBJ File: ''
# www.blender.org
mtllib pentagon_hole_3.mtl
o pentagon_hole_5
v 0.063000 -0.063000 0.000000
v 0.025957 0.000000 0.000000
v 0.063000 -0.063000 0.040000
v 0.025957 0.000000 0.040000
v 0.008021 -0.024687 0.000000
v 0.008021 -0.024687 0.040000
vt 0.000000 0.000000
vt 0.007308 0.000000
vt 0.000000 0.004000
vt 0.007308 0.004000
vt 0.000000 0.000000
vt 0.006701 0.000000
vt 0.000000 0.004000
vt 0.006701 0.004000
vt -0.000000 0.000000
vt 0.003051 0.000000
vt 0.000000 0.004000
vt 0.003051 0.004000
vt 0.003150 0.000955
vt 0.000681 0.002749
vt -0.003150 -0.002749
vt -0.000681 0.002749
vt -0.003150 0.000955
vt 0.003150 -0.002749
vn 0.8620 0.5069 0.0000
vn -0.5717 -0.8204 0.0000
vn -0.8090 0.5878 -0.0000
vn -0.0000 -0.0000 1.0000
vn 0.0000 0.0000 -1.0000
usemtl Steel_-_Satin.048
s 1
f 1/1/1 2/2/1 3/3/1
f 3/3/1 2/2/1 4/4/1
f 5/5/2 1/6/2 6/7/2
f 6/7/2 1/6/2 3/8/2
f 2/9/3 5/10/3 4/11/3
f 4/11/3 5/10/3 6/12/3
f 4/13/4 6/14/4 3/15/4
f 5/16/5 2/17/5 1/18/5
