# WaveFront *.obj file (generated by Autodesk ATF)

mtllib 3228d86e-ea2d-4ecd-85ad-d88d9729d10c.mtl

g Body116

v -0.021019 -0.015303 0.000000
v -0.021050 0.015262 0.000000
v -0.021050 0.015262 0.040000
v -0.021019 -0.015303 0.040000
v -0.050931 -0.037081 0.000000
v -0.050931 -0.037081 0.040000
v -0.051005 0.036980 0.000000
v -0.054591 0.031446 0.000000
v -0.057579 0.025567 0.000000
v -0.059936 0.019409 0.000000
v -0.061636 0.013037 0.000000
v -0.062661 0.006523 0.000000
v -0.063000 -0.000063 0.000000
v -0.062648 -0.006647 0.000000
v -0.061610 -0.013160 0.000000
v -0.059897 -0.019528 0.000000
v -0.057528 -0.025682 0.000000
v -0.054528 -0.031554 0.000000
v -0.054528 -0.031554 0.040000
v -0.057528 -0.025682 0.040000
v -0.059897 -0.019528 0.040000
v -0.061610 -0.013160 0.040000
v -0.062648 -0.006647 0.040000
v -0.063000 -0.000063 0.040000
v -0.062661 0.006523 0.040000
v -0.061636 0.013037 0.040000
v -0.059936 0.019409 0.040000
v -0.057579 0.025567 0.040000
v -0.054591 0.031446 0.040000
v -0.051005 0.036980 0.040000
vt -0.000000 0.000000 0.000000
vt 0.003056 0.000000 0.000000
vt 0.000000 0.004000 0.000000
vt 0.003056 0.004000 0.000000
vt 0.000000 0.000000 0.000000
vt 0.003700 0.000000 0.000000
vt 0.000000 0.004000 0.000000
vt 0.003700 0.004000 0.000000
vt -0.004000 0.015840 0.000000
vt -0.000000 0.015840 0.000000
vt -0.004000 0.016500 0.000000
vt -0.000000 0.016500 0.000000
vt -0.004000 0.017159 0.000000
vt -0.000000 0.017159 0.000000
vt -0.004000 0.017819 0.000000
vt -0.000000 0.017819 0.000000
vt -0.004000 0.018479 0.000000
vt -0.000000 0.018479 0.000000
vt -0.004000 0.019139 0.000000
vt -0.000000 0.019139 0.000000
vt -0.004000 0.019798 0.000000
vt -0.000000 0.019798 0.000000
vt -0.004000 0.020458 0.000000
vt -0.000000 0.020458 0.000000
vt -0.004000 0.021118 0.000000
vt -0.000000 0.021118 0.000000
vt -0.004000 0.021777 0.000000
vt -0.000000 0.021777 0.000000
vt -0.004000 0.022437 0.000000
vt -0.000000 0.022437 0.000000
vt -0.004000 0.023097 0.000000
vt -0.000000 0.023097 0.000000
vt -0.004000 0.023757 0.000000
vt -0.000000 0.023757 0.000000
vt 0.000000 0.000000 0.000000
vt 0.003700 0.000000 0.000000
vt 0.000000 0.004000 0.000000
vt 0.003700 0.004000 0.000000
vt -0.000900 0.003703 0.000000
vt -0.001258 0.003150 0.000000
vt 0.002096 0.001531 0.000000
vt -0.001557 0.002562 0.000000
vt -0.001793 0.001946 0.000000
vt 0.002099 -0.001525 0.000000
vt -0.001963 0.001309 0.000000
vt -0.002065 0.000657 0.000000
vt -0.002099 -0.000001 0.000000
vt -0.002064 -0.000660 0.000000
vt -0.001960 -0.001311 0.000000
vt -0.001789 -0.001948 0.000000
vt -0.001552 -0.002563 0.000000
vt -0.001252 -0.003150 0.000000
vt -0.000892 -0.003703 0.000000
vt 0.000900 0.003703 0.000000
vt -0.002096 0.001531 0.000000
vt 0.001258 0.003150 0.000000
vt 0.001557 0.002562 0.000000
vt 0.001793 0.001946 0.000000
vt -0.002099 -0.001525 0.000000
vt 0.001963 0.001309 0.000000
vt 0.002065 0.000657 0.000000
vt 0.002099 -0.000001 0.000000
vt 0.002064 -0.000660 0.000000
vt 0.001960 -0.001311 0.000000
vt 0.001789 -0.001948 0.000000
vt 0.001552 -0.002563 0.000000
vt 0.001252 -0.003150 0.000000
vt 0.000892 -0.003703 0.000000
vn 0.100000 0.000099 0.000000
vn 0.100000 0.000099 0.000000
vn 0.100000 0.000099 0.000000
vn 0.100000 0.000099 0.000000
vn 0.058859 -0.080843 0.000000
vn 0.058859 -0.080843 0.000000
vn 0.058859 -0.080843 0.000000
vn 0.058859 -0.080843 0.000000
vn -0.080960 0.058698 -0.000000
vn -0.080960 0.058698 -0.000000
vn -0.086652 0.049914 -0.000000
vn -0.086652 0.049914 -0.000000
vn -0.091395 0.040583 -0.000000
vn -0.091395 0.040583 -0.000000
vn -0.095136 0.030807 -0.000000
vn -0.095136 0.030807 -0.000000
vn -0.097835 0.020694 -0.000000
vn -0.097835 0.020694 -0.000000
vn -0.099463 0.010354 -0.000000
vn -0.099463 0.010354 -0.000000
vn -0.100000 -0.000099 0.000000
vn -0.100000 -0.000099 0.000000
vn -0.099442 -0.010552 0.000000
vn -0.099442 -0.010552 0.000000
vn -0.097794 -0.020888 0.000000
vn -0.097794 -0.020888 0.000000
vn -0.095075 -0.030996 0.000000
vn -0.095075 -0.030996 0.000000
vn -0.091314 -0.040764 0.000000
vn -0.091314 -0.040764 0.000000
vn -0.086553 -0.050086 0.000000
vn -0.086553 -0.050086 0.000000
vn -0.080843 -0.058859 0.000000
vn -0.080843 -0.058859 0.000000
vn 0.058698 0.080960 0.000000
vn 0.058698 0.080960 0.000000
vn 0.058698 0.080960 0.000000
vn 0.058698 0.080960 0.000000
vn 0.000000 0.000000 0.100000
vn 0.000000 0.000000 0.100000
vn 0.000000 0.000000 0.100000
vn 0.000000 0.000000 0.100000
vn 0.000000 0.000000 0.100000
vn 0.000000 0.000000 0.100000
vn 0.000000 0.000000 0.100000
vn 0.000000 0.000000 0.100000
vn 0.000000 0.000000 0.100000
vn 0.000000 0.000000 0.100000
vn 0.000000 0.000000 0.100000
vn 0.000000 0.000000 0.100000
vn 0.000000 0.000000 0.100000
vn 0.000000 0.000000 0.100000
vn 0.000000 0.000000 0.100000
vn 0.000000 0.000000 -0.100000
vn 0.000000 0.000000 -0.100000
vn 0.000000 0.000000 -0.100000
vn 0.000000 0.000000 -0.100000
vn 0.000000 0.000000 -0.100000
vn 0.000000 0.000000 -0.100000
vn 0.000000 0.000000 -0.100000
vn 0.000000 0.000000 -0.100000
vn 0.000000 0.000000 -0.100000
vn 0.000000 0.000000 -0.100000
vn 0.000000 0.000000 -0.100000
vn 0.000000 0.000000 -0.100000
vn 0.000000 0.000000 -0.100000
vn 0.000000 0.000000 -0.100000
vn 0.000000 0.000000 -0.100000
usemtl Steel_-_Satin
f 1/1/1 2/2/2 4/3/3
f 4/3/3 2/2/2 3/4/4
f 5/5/5 1/6/6 6/7/7
f 6/7/7 1/6/6 4/8/8
f 30/9/9 7/10/10 29/11/11
f 29/11/11 7/10/10 8/12/12
f 29/11/11 8/12/12 28/13/13
f 28/13/13 8/12/12 9/14/14
f 28/13/13 9/14/14 27/15/15
f 27/15/15 9/14/14 10/16/16
f 27/15/15 10/16/16 26/17/17
f 26/17/17 10/16/16 11/18/18
f 26/17/17 11/18/18 25/19/19
f 25/19/19 11/18/18 12/20/20
f 25/19/19 12/20/20 24/21/21
f 24/21/21 12/20/20 13/22/22
f 24/21/21 13/22/22 23/23/23
f 23/23/23 13/22/22 14/24/24
f 23/23/23 14/24/24 22/25/25
f 22/25/25 14/24/24 15/26/26
f 22/25/25 15/26/26 21/27/27
f 21/27/27 15/26/26 16/28/28
f 21/27/27 16/28/28 20/29/29
f 20/29/29 16/28/28 17/30/30
f 20/29/29 17/30/30 19/31/31
f 19/31/31 17/30/30 18/32/32
f 19/31/31 18/32/32 6/33/33
f 6/33/33 18/32/32 5/34/34
f 2/35/35 7/36/36 3/37/37
f 3/37/37 7/36/36 30/38/38
f 30/39/39 29/40/40 3/41/41
f 3/41/41 29/40/40 28/42/42
f 3/41/41 28/42/42 27/43/43
f 3/41/41 27/43/43 4/44/44
f 4/44/44 27/43/43 26/45/45
f 4/44/44 26/45/45 25/46/46
f 25/46/46 24/47/47 4/44/44
f 4/44/44 24/47/47 23/48/48
f 4/44/44 23/48/48 22/49/49
f 22/49/49 21/50/50 4/44/44
f 4/44/44 21/50/50 20/51/51
f 4/44/44 20/51/51 19/52/52
f 19/52/52 6/53/53 4/44/44
f 7/54/54 2/55/55 8/56/56
f 8/56/56 2/55/55 9/57/57
f 9/57/57 2/55/55 10/58/58
f 10/58/58 2/55/55 1/59/59
f 10/58/58 1/59/59 11/60/60
f 11/60/60 1/59/59 12/61/61
f 12/61/61 1/59/59 13/62/62
f 13/62/62 1/59/59 14/63/63
f 14/63/63 1/59/59 15/64/64
f 15/64/64 1/59/59 16/65/65
f 16/65/65 1/59/59 17/66/66
f 17/66/66 1/59/59 18/67/67
f 18/67/67 1/59/59 5/68/68
# 30 vertices
# 68 texture params
# 68 normals
# 56 facets

# 1 groups
