# WaveFront *.obj file (generated by Autodesk ATF)

mtllib 930fa05e-3e0a-4255-90d9-db93e0a6ec28.mtl

g Body119

v 0.008010 0.024735 0.000000
v 0.026000 0.000026 0.000000
v 0.026000 0.000026 0.040000
v 0.008010 0.024735 0.040000
v 0.019409 0.059936 0.000000
v 0.019409 0.059936 0.040000
v 0.063000 0.000026 0.000000
v 0.062652 0.006614 0.000000
v 0.061617 0.013130 0.000000
v 0.059906 0.019501 0.000000
v 0.057538 0.025659 0.000000
v 0.054539 0.031536 0.000000
v 0.050942 0.037066 0.000000
v 0.046787 0.042190 0.000000
v 0.042118 0.046852 0.000000
v 0.036987 0.050999 0.000000
v 0.031451 0.054588 0.000000
v 0.025570 0.057578 0.000000
v 0.025570 0.057578 0.040000
v 0.031451 0.054588 0.040000
v 0.036987 0.050999 0.040000
v 0.042118 0.046852 0.040000
v 0.046787 0.042190 0.040000
v 0.050942 0.037066 0.040000
v 0.054539 0.031536 0.040000
v 0.057538 0.025659 0.040000
v 0.059906 0.019501 0.040000
v 0.061617 0.013130 0.040000
v 0.062652 0.006614 0.040000
v 0.063000 0.000026 0.040000
vt 0.000000 0.000000 0.000000
vt 0.003056 0.000000 0.000000
vt 0.000000 0.004000 0.000000
vt 0.003056 0.004000 0.000000
vt -0.000000 0.000000 0.000000
vt 0.003700 0.000000 0.000000
vt -0.000000 0.004000 0.000000
vt 0.003700 0.004000 0.000000
vt -0.004000 0.000003 0.000000
vt -0.000000 0.000003 0.000000
vt -0.004000 0.000663 0.000000
vt -0.000000 0.000663 0.000000
vt -0.004000 0.001323 0.000000
vt -0.000000 0.001323 0.000000
vt -0.004000 0.001983 0.000000
vt -0.000000 0.001983 0.000000
vt -0.004000 0.002643 0.000000
vt -0.000000 0.002643 0.000000
vt -0.004000 0.003303 0.000000
vt -0.000000 0.003303 0.000000
vt -0.004000 0.003963 0.000000
vt -0.000000 0.003963 0.000000
vt -0.004000 0.004623 0.000000
vt -0.000000 0.004623 0.000000
vt -0.004000 0.005283 0.000000
vt -0.000000 0.005283 0.000000
vt -0.004000 0.005943 0.000000
vt -0.000000 0.005943 0.000000
vt -0.004000 0.006603 0.000000
vt -0.000000 0.006603 0.000000
vt -0.004000 0.007263 0.000000
vt -0.000000 0.007263 0.000000
vt -0.004000 0.007923 0.000000
vt -0.000000 0.007923 0.000000
vt 0.000000 0.000000 0.000000
vt 0.003700 0.000000 0.000000
vt 0.000000 0.004000 0.000000
vt 0.003700 0.004000 0.000000
vt 0.002750 -0.002996 0.000000
vt 0.002715 -0.002337 0.000000
vt -0.000950 -0.002996 0.000000
vt 0.002611 -0.001685 0.000000
vt 0.002440 -0.001048 0.000000
vt 0.002203 -0.000432 0.000000
vt 0.001903 0.000155 0.000000
vt 0.001544 0.000709 0.000000
vt 0.001128 0.001221 0.000000
vt -0.002750 -0.000525 0.000000
vt 0.000661 0.001687 0.000000
vt 0.000148 0.002102 0.000000
vt -0.000405 0.002461 0.000000
vt -0.000993 0.002760 0.000000
vt -0.001610 0.002996 0.000000
vt -0.002750 -0.002996 0.000000
vt 0.000950 -0.002996 0.000000
vt -0.002715 -0.002337 0.000000
vt -0.002611 -0.001685 0.000000
vt -0.002440 -0.001048 0.000000
vt -0.002203 -0.000432 0.000000
vt -0.001903 0.000155 0.000000
vt -0.001544 0.000709 0.000000
vt -0.001128 0.001221 0.000000
vt 0.002750 -0.000525 0.000000
vt -0.000661 0.001687 0.000000
vt -0.000148 0.002102 0.000000
vt 0.000405 0.002461 0.000000
vt 0.000993 0.002760 0.000000
vt 0.001610 0.002996 0.000000
vn -0.080843 -0.058859 0.000000
vn -0.080843 -0.058859 0.000000
vn -0.080843 -0.058859 0.000000
vn -0.080843 -0.058859 0.000000
vn -0.095136 0.030807 0.000000
vn -0.095136 0.030807 0.000000
vn -0.095136 0.030807 0.000000
vn -0.095136 0.030807 0.000000
vn 0.100000 0.000041 0.000000
vn 0.100000 0.000041 0.000000
vn 0.099447 0.010498 0.000000
vn 0.099447 0.010498 0.000000
vn 0.097804 0.020841 0.000000
vn 0.097804 0.020841 0.000000
vn 0.095088 0.030954 0.000000
vn 0.095088 0.030954 0.000000
vn 0.091330 0.040729 0.000000
vn 0.091330 0.040729 0.000000
vn 0.086570 0.050056 0.000000
vn 0.086570 0.050056 0.000000
vn 0.080860 0.058835 0.000000
vn 0.080860 0.058835 0.000000
vn 0.074264 0.066969 0.000000
vn 0.074264 0.066969 0.000000
vn 0.066854 0.074368 0.000000
vn 0.066854 0.074368 0.000000
vn 0.058710 0.080951 0.000000
vn 0.058710 0.080951 0.000000
vn 0.049922 0.086647 0.000000
vn 0.049922 0.086647 0.000000
vn 0.040587 0.091393 0.000000
vn 0.040587 0.091393 0.000000
vn 0.030807 0.095136 0.000000
vn 0.030807 0.095136 0.000000
vn 0.000000 -0.100000 0.000000
vn 0.000000 -0.100000 0.000000
vn 0.000000 -0.100000 0.000000
vn 0.000000 -0.100000 0.000000
vn 0.000000 0.000000 0.100000
vn 0.000000 0.000000 0.100000
vn 0.000000 0.000000 0.100000
vn 0.000000 0.000000 0.100000
vn 0.000000 0.000000 0.100000
vn 0.000000 0.000000 0.100000
vn 0.000000 0.000000 0.100000
vn 0.000000 0.000000 0.100000
vn 0.000000 0.000000 0.100000
vn 0.000000 0.000000 0.100000
vn 0.000000 0.000000 0.100000
vn 0.000000 0.000000 0.100000
vn 0.000000 0.000000 0.100000
vn 0.000000 0.000000 0.100000
vn 0.000000 0.000000 0.100000
vn 0.000000 0.000000 -0.100000
vn 0.000000 0.000000 -0.100000
vn 0.000000 0.000000 -0.100000
vn 0.000000 0.000000 -0.100000
vn 0.000000 0.000000 -0.100000
vn 0.000000 0.000000 -0.100000
vn 0.000000 0.000000 -0.100000
vn 0.000000 0.000000 -0.100000
vn 0.000000 0.000000 -0.100000
vn 0.000000 0.000000 -0.100000
vn 0.000000 0.000000 -0.100000
vn 0.000000 0.000000 -0.100000
vn 0.000000 0.000000 -0.100000
vn 0.000000 0.000000 -0.100000
vn 0.000000 0.000000 -0.100000
usemtl Steel_-_Satin
f 1/1/1 2/2/2 4/3/3
f 4/3/3 2/2/2 3/4/4
f 5/5/5 1/6/6 6/7/7
f 6/7/7 1/6/6 4/8/8
f 30/9/9 7/10/10 29/11/11
f 29/11/11 7/10/10 8/12/12
f 29/11/11 8/12/12 28/13/13
f 28/13/13 8/12/12 9/14/14
f 28/13/13 9/14/14 27/15/15
f 27/15/15 9/14/14 10/16/16
f 27/15/15 10/16/16 26/17/17
f 26/17/17 10/16/16 11/18/18
f 26/17/17 11/18/18 25/19/19
f 25/19/19 11/18/18 12/20/20
f 25/19/19 12/20/20 24/21/21
f 24/21/21 12/20/20 13/22/22
f 24/21/21 13/22/22 23/23/23
f 23/23/23 13/22/22 14/24/24
f 23/23/23 14/24/24 22/25/25
f 22/25/25 14/24/24 15/26/26
f 22/25/25 15/26/26 21/27/27
f 21/27/27 15/26/26 16/28/28
f 21/27/27 16/28/28 20/29/29
f 20/29/29 16/28/28 17/30/30
f 20/29/29 17/30/30 19/31/31
f 19/31/31 17/30/30 18/32/32
f 19/31/31 18/32/32 6/33/33
f 6/33/33 18/32/32 5/34/34
f 2/35/35 7/36/36 3/37/37
f 3/37/37 7/36/36 30/38/38
f 30/39/39 29/40/40 3/41/41
f 3/41/41 29/40/40 28/42/42
f 3/41/41 28/42/42 27/43/43
f 27/43/43 26/44/44 3/41/41
f 3/41/41 26/44/44 25/45/45
f 3/41/41 25/45/45 24/46/46
f 24/46/46 23/47/47 3/41/41
f 3/41/41 23/47/47 4/48/48
f 4/48/48 23/47/47 22/49/49
f 4/48/48 22/49/49 21/50/50
f 21/50/50 20/51/51 4/48/48
f 4/48/48 20/51/51 19/52/52
f 4/48/48 19/52/52 6/53/53
f 7/54/54 2/55/55 8/56/56
f 8/56/56 2/55/55 9/57/57
f 9/57/57 2/55/55 10/58/58
f 10/58/58 2/55/55 11/59/59
f 11/59/59 2/55/55 12/60/60
f 12/60/60 2/55/55 13/61/61
f 13/61/61 2/55/55 14/62/62
f 14/62/62 2/55/55 1/63/63
f 14/62/62 1/63/63 15/64/64
f 15/64/64 1/63/63 16/65/65
f 16/65/65 1/63/63 17/66/66
f 17/66/66 1/63/63 18/67/67
f 18/67/67 1/63/63 5/68/68
# 30 vertices
# 68 texture params
# 68 normals
# 56 facets

# 1 groups
