# Blender v3.5.1 OBJ File: ''
# www.blender.org
mtllib square_hole_c2.mtl
o square_1.005
v 0.021000 -0.021000 0.040000
v 0.021000 0.021000 0.040000
v 0.021000 -0.021000 0.000000
v 0.021000 0.021000 0.000000
v 0.063000 -0.063000 0.040000
v 0.063000 -0.063000 0.000000
v 0.063000 0.063000 0.040000
v 0.063000 0.063000 0.000000
vt -0.000000 0.000000
vt 0.004200 0.000000
vt 0.000000 0.004000
vt 0.004200 0.004000
vt 0.000000 0.000000
vt 0.005940 0.000000
vt 0.000000 0.004000
vt 0.005940 0.004000
vt -0.000000 0.000000
vt 0.012600 0.000000
vt -0.000000 0.004000
vt 0.012600 0.004000
vt 0.000000 0.000000
vt 0.005940 0.000000
vt 0.000000 0.004000
vt 0.005940 0.004000
vt -0.002100 -0.002100
vt 0.002100 -0.006300
vt -0.002100 0.002100
vt 0.002100 0.006300
vt 0.002100 -0.002100
vt 0.002100 0.002100
vt -0.002100 -0.006300
vt -0.002100 0.006300
vn -1.0000 0.0000 -0.0000
vn -0.7071 -0.7071 0.0000
vn 1.0000 0.0000 0.0000
vn -0.7071 0.7071 -0.0000
vn 0.0000 0.0000 -1.0000
vn 0.0000 0.0000 1.0000
usemtl Steel_-_Satin.032
s 1
f 1/1/1 2/2/1 3/3/1
f 3/3/1 2/2/1 4/4/1
f 5/5/2 1/6/2 6/7/2
f 6/7/2 1/6/2 3/8/2
f 7/9/3 5/10/3 8/11/3
f 8/11/3 5/10/3 6/12/3
f 2/13/4 7/14/4 4/15/4
f 4/15/4 7/14/4 8/16/4
f 4/17/5 8/18/5 3/19/5
f 3/19/5 8/18/5 6/20/5
f 2/21/6 1/22/6 7/23/6
f 7/23/6 1/22/6 5/24/6
