# WaveFront *.obj file (generated by Autodesk ATF)

mtllib 5ee6732d-3057-44fc-81ff-046366b43fdf.mtl

g Body129

v -0.031500 -0.054560 0.000000
v -0.013000 -0.022517 0.000000
v -0.013000 -0.022517 0.040000
v -0.031500 -0.054560 0.040000
v -0.031500 0.054560 0.000000
v -0.037966 0.050275 0.000000
v -0.043856 0.045228 0.000000
v -0.049082 0.039496 0.000000
v -0.053564 0.033165 0.000000
v -0.057233 0.026332 0.000000
v -0.060035 0.019099 0.000000
v -0.061927 0.011576 0.000000
v -0.062881 0.003878 0.000000
v -0.062881 -0.003878 0.000000
v -0.061927 -0.011576 0.000000
v -0.060035 -0.019099 0.000000
v -0.057233 -0.026332 0.000000
v -0.053564 -0.033165 0.000000
v -0.049082 -0.039496 0.000000
v -0.043856 -0.045228 0.000000
v -0.037966 -0.050275 0.000000
v -0.037966 -0.050275 0.040000
v -0.043856 -0.045228 0.040000
v -0.049082 -0.039496 0.040000
v -0.053564 -0.033165 0.040000
v -0.057233 -0.026332 0.040000
v -0.060035 -0.019099 0.040000
v -0.061927 -0.011576 0.040000
v -0.062881 -0.003878 0.040000
v -0.062881 0.003878 0.040000
v -0.061927 0.011576 0.040000
v -0.060035 0.019099 0.040000
v -0.057233 0.026332 0.040000
v -0.053564 0.033165 0.040000
v -0.049082 0.039496 0.040000
v -0.043856 0.045228 0.040000
v -0.037966 0.050275 0.040000
v -0.031500 0.054560 0.040000
v -0.013000 0.022517 0.000000
v -0.013000 0.022517 0.040000
vt 0.000000 0.000000 0.000000
vt 0.003700 0.000000 0.000000
vt 0.000000 0.004000 0.000000
vt 0.003700 0.004000 0.000000
vt -0.004000 0.013195 0.000000
vt -0.000000 0.013195 0.000000
vt -0.004000 0.013971 0.000000
vt -0.000000 0.013971 0.000000
vt -0.004000 0.014747 0.000000
vt -0.000000 0.014747 0.000000
vt -0.004000 0.015523 0.000000
vt -0.000000 0.015523 0.000000
vt -0.004000 0.016299 0.000000
vt -0.000000 0.016299 0.000000
vt -0.004000 0.017075 0.000000
vt -0.000000 0.017075 0.000000
vt -0.004000 0.017852 0.000000
vt -0.000000 0.017852 0.000000
vt -0.004000 0.018628 0.000000
vt -0.000000 0.018628 0.000000
vt -0.004000 0.019404 0.000000
vt -0.000000 0.019404 0.000000
vt -0.004000 0.020180 0.000000
vt -0.000000 0.020180 0.000000
vt -0.004000 0.020956 0.000000
vt -0.000000 0.020956 0.000000
vt -0.004000 0.021732 0.000000
vt -0.000000 0.021732 0.000000
vt -0.004000 0.022509 0.000000
vt -0.000000 0.022509 0.000000
vt -0.004000 0.023285 0.000000
vt -0.000000 0.023285 0.000000
vt -0.004000 0.024061 0.000000
vt -0.000000 0.024061 0.000000
vt -0.004000 0.024837 0.000000
vt -0.000000 0.024837 0.000000
vt -0.004000 0.025613 0.000000
vt -0.000000 0.025613 0.000000
vt -0.004000 0.026389 0.000000
vt -0.000000 0.026389 0.000000
vt 0.000000 0.000000 0.000000
vt 0.003700 0.000000 0.000000
vt 0.000000 0.004000 0.000000
vt 0.003700 0.004000 0.000000
vt 0.000000 0.000000 0.000000
vt 0.004503 0.000000 0.000000
vt 0.000000 0.004000 0.000000
vt 0.004503 0.004000 0.000000
vt 0.002500 0.002252 0.000000
vt -0.000586 -0.004523 0.000000
vt 0.002500 -0.002252 0.000000
vt 0.000003 -0.005028 0.000000
vt 0.000650 -0.005456 0.000000
vt 0.000650 0.005456 0.000000
vt 0.000003 0.005028 0.000000
vt -0.000586 0.004523 0.000000
vt -0.001108 -0.003950 0.000000
vt -0.001108 0.003950 0.000000
vt -0.001556 -0.003317 0.000000
vt -0.001556 0.003317 0.000000
vt -0.001923 -0.002633 0.000000
vt -0.001923 0.002633 0.000000
vt -0.002204 -0.001910 0.000000
vt -0.002204 0.001910 0.000000
vt -0.002393 -0.001158 0.000000
vt -0.002393 0.001158 0.000000
vt -0.002488 -0.000388 0.000000
vt -0.002488 0.000388 0.000000
vt -0.002500 -0.002252 0.000000
vt 0.000586 -0.004523 0.000000
vt -0.002500 0.002252 0.000000
vt 0.000586 0.004523 0.000000
vt -0.000003 0.005028 0.000000
vt -0.000650 -0.005456 0.000000
vt -0.000003 -0.005028 0.000000
vt 0.001108 -0.003950 0.000000
vt 0.001108 0.003950 0.000000
vt 0.001556 -0.003317 0.000000
vt 0.001556 0.003317 0.000000
vt 0.001923 -0.002633 0.000000
vt 0.001923 0.002633 0.000000
vt 0.002204 -0.001910 0.000000
vt 0.002204 0.001910 0.000000
vt 0.002393 -0.001158 0.000000
vt 0.002393 0.001158 0.000000
vt 0.002488 -0.000388 0.000000
vt 0.002488 0.000388 0.000000
vt -0.000650 0.005456 0.000000
vn 0.086603 -0.050000 0.000000
vn 0.086603 -0.050000 0.000000
vn 0.086603 -0.050000 0.000000
vn 0.086603 -0.050000 0.000000
vn -0.050000 0.086603 -0.000000
vn -0.050000 0.086603 -0.000000
vn -0.060263 0.079802 -0.000000
vn -0.060263 0.079802 -0.000000
vn -0.069613 0.071791 -0.000000
vn -0.069613 0.071791 -0.000000
vn -0.077908 0.062692 -0.000000
vn -0.077908 0.062692 -0.000000
vn -0.085022 0.052643 -0.000000
vn -0.085022 0.052643 -0.000000
vn -0.090847 0.041796 -0.000000
vn -0.090847 0.041796 -0.000000
vn -0.095294 0.030315 -0.000000
vn -0.095294 0.030315 -0.000000
vn -0.098297 0.018375 -0.000000
vn -0.098297 0.018375 -0.000000
vn -0.099810 0.006156 -0.000000
vn -0.099810 0.006156 -0.000000
vn -0.099810 -0.006156 0.000000
vn -0.099810 -0.006156 0.000000
vn -0.098297 -0.018375 0.000000
vn -0.098297 -0.018375 0.000000
vn -0.095294 -0.030315 0.000000
vn -0.095294 -0.030315 0.000000
vn -0.090847 -0.041796 0.000000
vn -0.090847 -0.041796 0.000000
vn -0.085022 -0.052643 0.000000
vn -0.085022 -0.052643 0.000000
vn -0.077908 -0.062692 0.000000
vn -0.077908 -0.062692 0.000000
vn -0.069613 -0.071791 0.000000
vn -0.069613 -0.071791 0.000000
vn -0.060263 -0.079802 0.000000
vn -0.060263 -0.079802 0.000000
vn -0.050000 -0.086603 0.000000
vn -0.050000 -0.086603 0.000000
vn 0.086603 0.050000 0.000000
vn 0.086603 0.050000 0.000000
vn 0.086603 0.050000 0.000000
vn 0.086603 0.050000 0.000000
vn 0.100000 -0.000000 0.000000
vn 0.100000 -0.000000 0.000000
vn 0.100000 -0.000000 0.000000
vn 0.100000 -0.000000 0.000000
vn 0.000000 0.000000 0.100000
vn 0.000000 0.000000 0.100000
vn 0.000000 0.000000 0.100000
vn 0.000000 0.000000 0.100000
vn 0.000000 0.000000 0.100000
vn 0.000000 0.000000 0.100000
vn 0.000000 0.000000 0.100000
vn 0.000000 0.000000 0.100000
vn 0.000000 0.000000 0.100000
vn 0.000000 0.000000 0.100000
vn 0.000000 0.000000 0.100000
vn 0.000000 0.000000 0.100000
vn 0.000000 0.000000 0.100000
vn 0.000000 0.000000 0.100000
vn 0.000000 0.000000 0.100000
vn 0.000000 0.000000 0.100000
vn 0.000000 0.000000 0.100000
vn 0.000000 0.000000 0.100000
vn 0.000000 0.000000 0.100000
vn 0.000000 0.000000 0.100000
vn 0.000000 0.000000 -0.100000
vn 0.000000 0.000000 -0.100000
vn 0.000000 0.000000 -0.100000
vn 0.000000 0.000000 -0.100000
vn 0.000000 0.000000 -0.100000
vn 0.000000 0.000000 -0.100000
vn 0.000000 0.000000 -0.100000
vn 0.000000 0.000000 -0.100000
vn 0.000000 0.000000 -0.100000
vn 0.000000 0.000000 -0.100000
vn 0.000000 0.000000 -0.100000
vn 0.000000 0.000000 -0.100000
vn 0.000000 0.000000 -0.100000
vn 0.000000 0.000000 -0.100000
vn 0.000000 0.000000 -0.100000
vn 0.000000 0.000000 -0.100000
vn 0.000000 0.000000 -0.100000
vn 0.000000 0.000000 -0.100000
vn 0.000000 0.000000 -0.100000
vn 0.000000 0.000000 -0.100000
usemtl Steel_-_Satin
f 1/1/1 2/2/2 4/3/3
f 4/3/3 2/2/2 3/4/4
f 38/5/5 5/6/6 37/7/7
f 37/7/7 5/6/6 6/8/8
f 37/7/7 6/8/8 36/9/9
f 36/9/9 6/8/8 7/10/10
f 36/9/9 7/10/10 35/11/11
f 35/11/11 7/10/10 8/12/12
f 35/11/11 8/12/12 34/13/13
f 34/13/13 8/12/12 9/14/14
f 34/13/13 9/14/14 33/15/15
f 33/15/15 9/14/14 10/16/16
f 33/15/15 10/16/16 32/17/17
f 32/17/17 10/16/16 11/18/18
f 32/17/17 11/18/18 31/19/19
f 31/19/19 11/18/18 12/20/20
f 31/19/19 12/20/20 30/21/21
f 30/21/21 12/20/20 13/22/22
f 30/21/21 13/22/22 29/23/23
f 29/23/23 13/22/22 14/24/24
f 29/23/23 14/24/24 28/25/25
f 28/25/25 14/24/24 15/26/26
f 28/25/25 15/26/26 27/27/27
f 27/27/27 15/26/26 16/28/28
f 27/27/27 16/28/28 26/29/29
f 26/29/29 16/28/28 17/30/30
f 26/29/29 17/30/30 25/31/31
f 25/31/31 17/30/30 18/32/32
f 25/31/31 18/32/32 24/33/33
f 24/33/33 18/32/32 19/34/34
f 24/33/33 19/34/34 23/35/35
f 23/35/35 19/34/34 20/36/36
f 23/35/35 20/36/36 22/37/37
f 22/37/37 20/36/36 21/38/38
f 22/37/37 21/38/38 4/39/39
f 4/39/39 21/38/38 1/40/40
f 39/41/41 5/42/42 40/43/43
f 40/43/43 5/42/42 38/44/44
f 2/45/45 39/46/46 3/47/47
f 3/47/47 39/46/46 40/48/48
f 40/49/49 23/50/50 3/51/51
f 3/51/51 23/50/50 22/52/52
f 3/51/51 22/52/52 4/53/53
f 38/54/54 37/55/55 40/49/49
f 40/49/49 37/55/55 36/56/56
f 40/49/49 36/56/56 23/50/50
f 23/50/50 36/56/56 24/57/57
f 24/57/57 36/56/56 35/58/58
f 24/57/57 35/58/58 25/59/59
f 25/59/59 35/58/58 34/60/60
f 25/59/59 34/60/60 26/61/61
f 26/61/61 34/60/60 33/62/62
f 26/61/61 33/62/62 27/63/63
f 27/63/63 33/62/62 32/64/64
f 27/63/63 32/64/64 28/65/65
f 28/65/65 32/64/64 31/66/66
f 28/65/65 31/66/66 29/67/67
f 29/67/67 31/66/66 30/68/68
f 2/69/69 20/70/70 39/71/71
f 39/71/71 20/70/70 7/72/72
f 39/71/71 7/72/72 6/73/73
f 1/74/74 21/75/75 2/69/69
f 2/69/69 21/75/75 20/70/70
f 20/70/70 19/76/76 7/72/72
f 7/72/72 19/76/76 8/77/77
f 8/77/77 19/76/76 18/78/78
f 8/77/77 18/78/78 9/79/79
f 9/79/79 18/78/78 17/80/80
f 9/79/79 17/80/80 10/81/81
f 10/81/81 17/80/80 16/82/82
f 10/81/81 16/82/82 11/83/83
f 11/83/83 16/82/82 15/84/84
f 11/83/83 15/84/84 12/85/85
f 12/85/85 15/84/84 14/86/86
f 12/85/85 14/86/86 13/87/87
f 6/73/73 5/88/88 39/71/71
# 40 vertices
# 88 texture params
# 88 normals
# 76 facets

# 1 groups
