# WaveFront *.obj file (generated by Autodesk ATF)

mtllib ed7c587a-190f-41b6-b346-7fb7d94902bd.mtl

g Body130

v 0.026000 -0.000000 0.000000
v -0.013000 -0.022517 0.000000
v -0.013000 -0.022517 0.040000
v 0.026000 -0.000000 0.040000
v 0.063000 -0.000000 0.000000
v 0.063000 -0.000000 0.040000
v -0.031500 -0.054560 0.000000
v -0.024557 -0.058017 0.000000
v -0.017241 -0.060595 0.000000
v -0.009664 -0.062254 0.000000
v -0.001940 -0.062970 0.000000
v 0.005813 -0.062731 0.000000
v 0.013478 -0.061541 0.000000
v 0.020938 -0.059419 0.000000
v 0.028082 -0.056395 0.000000
v 0.034799 -0.052517 0.000000
v 0.040989 -0.047843 0.000000
v 0.046558 -0.042443 0.000000
v 0.051420 -0.036400 0.000000
v 0.055504 -0.029805 0.000000
v 0.058746 -0.022758 0.000000
v 0.061097 -0.015367 0.000000
v 0.062522 -0.007742 0.000000
v 0.062522 -0.007742 0.040000
v 0.061097 -0.015367 0.040000
v 0.058746 -0.022758 0.040000
v 0.055504 -0.029805 0.040000
v 0.051420 -0.036400 0.040000
v 0.046558 -0.042443 0.040000
v 0.040989 -0.047843 0.040000
v 0.034799 -0.052517 0.040000
v 0.028082 -0.056395 0.040000
v 0.020938 -0.059419 0.040000
v 0.013478 -0.061541 0.040000
v 0.005813 -0.062731 0.040000
v -0.001940 -0.062970 0.040000
v -0.009664 -0.062254 0.040000
v -0.017241 -0.060595 0.040000
v -0.024557 -0.058017 0.040000
v -0.031500 -0.054560 0.040000
vt -0.000000 0.000000 0.000000
vt 0.004503 0.000000 0.000000
vt -0.000000 0.004000 0.000000
vt 0.004503 0.004000 0.000000
vt -0.000000 0.000000 0.000000
vt 0.003700 0.000000 0.000000
vt 0.000000 0.004000 0.000000
vt 0.003700 0.004000 0.000000
vt -0.004000 -0.013195 0.000000
vt -0.000000 -0.013195 0.000000
vt -0.004000 -0.012419 0.000000
vt -0.000000 -0.012419 0.000000
vt -0.004000 -0.011642 0.000000
vt -0.000000 -0.011642 0.000000
vt -0.004000 -0.010866 0.000000
vt -0.000000 -0.010866 0.000000
vt -0.004000 -0.010090 0.000000
vt -0.000000 -0.010090 0.000000
vt -0.004000 -0.009314 0.000000
vt -0.000000 -0.009314 0.000000
vt -0.004000 -0.008538 0.000000
vt -0.000000 -0.008538 0.000000
vt -0.004000 -0.007762 0.000000
vt -0.000000 -0.007762 0.000000
vt -0.004000 -0.006985 0.000000
vt -0.000000 -0.006985 0.000000
vt -0.004000 -0.006209 0.000000
vt -0.000000 -0.006209 0.000000
vt -0.004000 -0.005433 0.000000
vt -0.000000 -0.005433 0.000000
vt -0.004000 -0.004657 0.000000
vt -0.000000 -0.004657 0.000000
vt -0.004000 -0.003881 0.000000
vt -0.000000 -0.003881 0.000000
vt -0.004000 -0.003105 0.000000
vt -0.000000 -0.003105 0.000000
vt -0.004000 -0.002328 0.000000
vt -0.000000 -0.002328 0.000000
vt -0.004000 -0.001552 0.000000
vt -0.000000 -0.001552 0.000000
vt -0.004000 -0.000776 0.000000
vt -0.000000 -0.000776 0.000000
vt -0.004000 -0.000000 0.000000
vt -0.000000 -0.000000 0.000000
vt 0.000000 0.000000 0.000000
vt 0.003700 0.000000 0.000000
vt 0.000000 0.004000 0.000000
vt 0.003700 0.004000 0.000000
vt -0.004725 -0.002306 0.000000
vt -0.004031 -0.002652 0.000000
vt -0.002875 0.000898 0.000000
vt -0.003299 -0.002910 0.000000
vt -0.002541 -0.003075 0.000000
vt -0.001769 -0.003147 0.000000
vt -0.000994 -0.003123 0.000000
vt -0.000227 -0.003004 0.000000
vt 0.000519 -0.002792 0.000000
vt 0.001233 -0.002490 0.000000
vt 0.001905 -0.002102 0.000000
vt 0.002524 -0.001634 0.000000
vt 0.003081 -0.001094 0.000000
vt 0.003567 -0.000490 0.000000
vt 0.003975 0.000170 0.000000
vt 0.001025 0.003150 0.000000
vt 0.004300 0.000874 0.000000
vt 0.004535 0.001613 0.000000
vt 0.004677 0.002376 0.000000
vt 0.004725 0.003150 0.000000
vt 0.004725 -0.002306 0.000000
vt 0.002875 0.000898 0.000000
vt 0.004031 -0.002652 0.000000
vt 0.003299 -0.002910 0.000000
vt 0.002541 -0.003075 0.000000
vt 0.001769 -0.003147 0.000000
vt 0.000994 -0.003123 0.000000
vt 0.000227 -0.003004 0.000000
vt -0.000519 -0.002792 0.000000
vt -0.001233 -0.002490 0.000000
vt -0.001905 -0.002102 0.000000
vt -0.002524 -0.001634 0.000000
vt -0.003081 -0.001094 0.000000
vt -0.003567 -0.000490 0.000000
vt -0.003975 0.000170 0.000000
vt -0.001025 0.003150 0.000000
vt -0.004300 0.000874 0.000000
vt -0.004535 0.001613 0.000000
vt -0.004677 0.002376 0.000000
vt -0.004725 0.003150 0.000000
vn -0.050000 0.086603 0.000000
vn -0.050000 0.086603 0.000000
vn -0.050000 0.086603 0.000000
vn -0.050000 0.086603 0.000000
vn 0.000000 0.100000 0.000000
vn 0.000000 0.100000 0.000000
vn 0.000000 0.100000 0.000000
vn 0.000000 0.100000 0.000000
vn -0.050000 -0.086603 0.000000
vn -0.050000 -0.086603 0.000000
vn -0.038979 -0.092091 0.000000
vn -0.038979 -0.092091 0.000000
vn -0.027366 -0.096183 0.000000
vn -0.027366 -0.096183 0.000000
vn -0.015339 -0.098817 0.000000
vn -0.015339 -0.098817 0.000000
vn -0.003080 -0.099953 0.000000
vn -0.003080 -0.099953 0.000000
vn 0.009227 -0.099573 0.000000
vn 0.009227 -0.099573 0.000000
vn 0.021393 -0.097685 0.000000
vn 0.021393 -0.097685 0.000000
vn 0.033235 -0.094315 0.000000
vn 0.033235 -0.094315 0.000000
vn 0.044574 -0.089516 0.000000
vn 0.044574 -0.089516 0.000000
vn 0.055236 -0.083360 0.000000
vn 0.055236 -0.083360 0.000000
vn 0.065062 -0.075940 0.000000
vn 0.065062 -0.075940 0.000000
vn 0.073901 -0.067370 0.000000
vn 0.073901 -0.067370 0.000000
vn 0.081620 -0.057777 0.000000
vn 0.081620 -0.057777 0.000000
vn 0.088101 -0.047309 0.000000
vn 0.088101 -0.047309 0.000000
vn 0.093247 -0.036124 0.000000
vn 0.093247 -0.036124 0.000000
vn 0.096980 -0.024391 0.000000
vn 0.096980 -0.024391 0.000000
vn 0.099242 -0.012289 0.000000
vn 0.099242 -0.012289 0.000000
vn 0.100000 -0.000000 0.000000
vn 0.100000 -0.000000 0.000000
vn -0.086603 0.050000 0.000000
vn -0.086603 0.050000 0.000000
vn -0.086603 0.050000 0.000000
vn -0.086603 0.050000 0.000000
vn 0.000000 0.000000 0.100000
vn 0.000000 0.000000 0.100000
vn 0.000000 0.000000 0.100000
vn 0.000000 0.000000 0.100000
vn 0.000000 0.000000 0.100000
vn 0.000000 0.000000 0.100000
vn 0.000000 0.000000 0.100000
vn 0.000000 0.000000 0.100000
vn 0.000000 0.000000 0.100000
vn 0.000000 0.000000 0.100000
vn 0.000000 0.000000 0.100000
vn 0.000000 0.000000 0.100000
vn 0.000000 0.000000 0.100000
vn 0.000000 0.000000 0.100000
vn 0.000000 0.000000 0.100000
vn 0.000000 0.000000 0.100000
vn 0.000000 0.000000 0.100000
vn 0.000000 0.000000 0.100000
vn 0.000000 0.000000 0.100000
vn 0.000000 0.000000 0.100000
vn 0.000000 0.000000 -0.100000
vn 0.000000 0.000000 -0.100000
vn 0.000000 0.000000 -0.100000
vn 0.000000 0.000000 -0.100000
vn 0.000000 0.000000 -0.100000
vn 0.000000 0.000000 -0.100000
vn 0.000000 0.000000 -0.100000
vn 0.000000 0.000000 -0.100000
vn 0.000000 0.000000 -0.100000
vn 0.000000 0.000000 -0.100000
vn 0.000000 0.000000 -0.100000
vn 0.000000 0.000000 -0.100000
vn 0.000000 0.000000 -0.100000
vn 0.000000 0.000000 -0.100000
vn 0.000000 0.000000 -0.100000
vn 0.000000 0.000000 -0.100000
vn 0.000000 0.000000 -0.100000
vn 0.000000 0.000000 -0.100000
vn 0.000000 0.000000 -0.100000
vn 0.000000 0.000000 -0.100000
usemtl Steel_-_Satin
f 1/1/1 2/2/2 4/3/3
f 4/3/3 2/2/2 3/4/4
f 5/5/5 1/6/6 6/7/7
f 6/7/7 1/6/6 4/8/8
f 40/9/9 7/10/10 39/11/11
f 39/11/11 7/10/10 8/12/12
f 39/11/11 8/12/12 38/13/13
f 38/13/13 8/12/12 9/14/14
f 38/13/13 9/14/14 37/15/15
f 37/15/15 9/14/14 10/16/16
f 37/15/15 10/16/16 36/17/17
f 36/17/17 10/16/16 11/18/18
f 36/17/17 11/18/18 35/19/19
f 35/19/19 11/18/18 12/20/20
f 35/19/19 12/20/20 34/21/21
f 34/21/21 12/20/20 13/22/22
f 34/21/21 13/22/22 33/23/23
f 33/23/23 13/22/22 14/24/24
f 33/23/23 14/24/24 32/25/25
f 32/25/25 14/24/24 15/26/26
f 32/25/25 15/26/26 31/27/27
f 31/27/27 15/26/26 16/28/28
f 31/27/27 16/28/28 30/29/29
f 30/29/29 16/28/28 17/30/30
f 30/29/29 17/30/30 29/31/31
f 29/31/31 17/30/30 18/32/32
f 29/31/31 18/32/32 28/33/33
f 28/33/33 18/32/32 19/34/34
f 28/33/33 19/34/34 27/35/35
f 27/35/35 19/34/34 20/36/36
f 27/35/35 20/36/36 26/37/37
f 26/37/37 20/36/36 21/38/38
f 26/37/37 21/38/38 25/39/39
f 25/39/39 21/38/38 22/40/40
f 25/39/39 22/40/40 24/41/41
f 24/41/41 22/40/40 23/42/42
f 24/41/41 23/42/42 6/43/43
f 6/43/43 23/42/42 5/44/44
f 2/45/45 7/46/46 3/47/47
f 3/47/47 7/46/46 40/48/48
f 40/49/49 39/50/50 3/51/51
f 3/51/51 39/50/50 38/52/52
f 3/51/51 38/52/52 37/53/53
f 37/53/53 36/54/54 3/51/51
f 3/51/51 36/54/54 35/55/55
f 3/51/51 35/55/55 34/56/56
f 34/56/56 33/57/57 3/51/51
f 3/51/51 33/57/57 32/58/58
f 3/51/51 32/58/58 31/59/59
f 31/59/59 30/60/60 3/51/51
f 3/51/51 30/60/60 29/61/61
f 3/51/51 29/61/61 28/62/62
f 28/62/62 27/63/63 3/51/51
f 3/51/51 27/63/63 4/64/64
f 4/64/64 27/63/63 26/65/65
f 4/64/64 26/65/65 25/66/66
f 25/66/66 24/67/67 4/64/64
f 4/64/64 24/67/67 6/68/68
f 7/69/69 2/70/70 8/71/71
f 8/71/71 2/70/70 9/72/72
f 9/72/72 2/70/70 10/73/73
f 10/73/73 2/70/70 11/74/74
f 11/74/74 2/70/70 12/75/75
f 12/75/75 2/70/70 13/76/76
f 13/76/76 2/70/70 14/77/77
f 14/77/77 2/70/70 15/78/78
f 15/78/78 2/70/70 16/79/79
f 16/79/79 2/70/70 17/80/80
f 17/80/80 2/70/70 18/81/81
f 18/81/81 2/70/70 19/82/82
f 19/82/82 2/70/70 20/83/83
f 20/83/83 2/70/70 1/84/84
f 20/83/83 1/84/84 21/85/85
f 21/85/85 1/84/84 22/86/86
f 22/86/86 1/84/84 23/87/87
f 23/87/87 1/84/84 5/88/88
# 40 vertices
# 88 texture params
# 88 normals
# 76 facets

# 1 groups
