# Blender v3.5.1 OBJ File: 'pegs_and_holes.blend'
# www.blender.org
mtllib triangle_triangle_hole_1.mtl
o triangle_triangle_hole_1
v -0.013007 -0.022512 -0.000000
v -0.052000 -0.090067 -0.000000
v -0.013007 -0.022512 0.040000
v -0.052000 -0.090067 0.040000
v 0.026000 -0.000008 0.000000
v 0.026000 -0.000008 0.040000
v 0.104000 0.000000 0.000000
v 0.104000 0.000000 0.040000
vt -0.000000 0.000000
vt 0.007800 0.000000
vt -0.000000 0.004000
vt 0.007800 0.004000
vt -0.000000 0.000000
vt 0.004503 0.000000
vt 0.000000 0.004000
vt 0.004503 0.004000
vt 0.000000 0.000000
vt 0.007800 0.000000
vt -0.000000 0.004000
vt 0.007800 0.004000
vt 0.000000 0.000000
vt 0.018013 0.000000
vt 0.000000 0.004000
vt 0.018013 0.004000
vt -0.007800 -0.004503
vt 0.007800 0.004503
vt -0.003901 0.002252
vt -0.000000 0.004502
vt 0.004503 0.007800
vt -0.002252 0.003901
vt -0.004503 -0.007800
vt -0.004502 0.000000
vn -0.8661 0.4999 -0.0000
vn -0.4997 0.8662 -0.0000
vn -0.0001 1.0000 0.0000
vn 0.5000 -0.8660 0.0000
vn 0.0000 -0.0000 1.0000
vn 0.0000 0.0000 -1.0000
usemtl Steel_-_Satin.123
s 1
f 1/1/1 2/2/1 3/3/1
f 3/3/1 2/2/1 4/4/1
f 5/5/2 1/6/2 6/7/2
f 6/7/2 1/6/2 3/8/2
f 7/9/3 5/10/3 8/11/3
f 8/11/3 5/10/3 6/12/3
f 2/13/4 7/14/4 4/15/4
f 4/15/4 7/14/4 8/16/4
f 4/17/5 8/18/5 3/19/5
f 3/19/5 8/18/5 6/20/5
f 2/21/6 1/22/6 7/23/6
f 7/23/6 1/22/6 5/24/6
