# Blender v3.5.1 OBJ File: 'pegs_and_holes.blend'
# www.blender.org
mtllib triangle_hole_5.mtl
o triangle_hole_1.002
v -0.063000 0.063000 -0.000000
v -0.013000 0.022517 -0.000000
v -0.063000 0.063000 0.040000
v -0.013000 0.022517 0.040000
v 0.063000 0.063000 0.000000
v 0.063000 0.063000 0.040000
vt -0.000000 0.000000
vt 0.006433 0.000000
vt -0.000000 0.004000
vt 0.006433 0.004000
vt 0.000000 0.000000
vt 0.012600 0.000000
vt 0.000000 0.004000
vt 0.012600 0.004000
vt 0.000000 0.000000
vt 0.008611 0.000000
vt 0.000000 0.004000
vt 0.008611 0.004000
vt -0.002024 0.001300
vt 0.002024 -0.006300
vt 0.002024 0.006300
vt -0.002024 -0.006300
vt 0.002024 0.001300
vt -0.002024 0.006300
vn -0.6293 -0.7772 0.0000
vn 0.0000 1.0000 0.0000
vn 0.4701 -0.8826 0.0000
vn 0.0000 0.0000 1.0000
vn 0.0000 0.0000 -1.0000
usemtl Steel_-_Satin.120
s 1
f 1/1/1 2/2/1 3/3/1
f 3/3/1 2/2/1 4/4/1
f 5/5/2 1/6/2 6/7/2
f 6/7/2 1/6/2 3/8/2
f 2/9/3 5/10/3 4/11/3
f 4/11/3 5/10/3 6/12/3
f 4/13/4 6/14/4 3/15/4
f 5/16/5 2/17/5 1/18/5
