# Blender v3.5.1 OBJ File: 'round.blend'
# www.blender.org
mtllib hexagon_6.mtl
o hexagon_hole_6
v 0.000286 0.024397 0.040000
v -0.062714 0.063148 0.040000
v 0.000286 0.024397 -0.000000
v -0.062714 0.063148 -0.000000
v 0.063286 0.063148 0.040000
v 0.063286 0.063148 0.000000
v 0.000286 0.024397 0.000000
v -0.062714 0.063148 0.000000
vn -0.5239 -0.8518 0.0000
vn 0.5239 -0.8518 0.0000
vn 0.0000 1.0000 0.0000
vn 0.0000 0.0000 1.0000
vn 0.0000 0.0000 -1.0000
usemtl None
s off
f 1//1 2//1 3//1
f 3//1 2//1 4//1
f 5//2 1//2 6//2
f 6//2 1//2 7//2
f 2//3 5//3 8//3
f 8//3 5//3 6//3
f 1//4 5//4 2//4
f 8//5 6//5 7//5
