# Blender v3.5.1 OBJ File: 'round.blend'
# www.blender.org
mtllib hexagon_4.mtl
o hexagon_hole_4
v 0.021265 0.011967 0.040000
v 0.063265 0.062843 0.040000
v 0.021265 0.011967 0.000000
v 0.063265 0.062843 0.000000
v 0.021265 -0.012281 0.040000
v 0.021265 -0.012281 0.000000
v 0.021265 0.011967 0.000000
v 0.063265 -0.063157 0.040000
v 0.063265 -0.063157 0.000000
v 0.021265 -0.012281 0.000000
vn -0.7712 0.6366 0.0000
vn -1.0000 0.0000 0.0000
vn -0.7712 -0.6366 0.0000
vn 1.0000 0.0000 0.0000
vn 0.0000 0.0000 1.0000
vn 0.0000 0.0000 -1.0000
usemtl None
s off
f 1//1 2//1 3//1
f 3//1 2//1 4//1
f 5//2 1//2 6//2
f 6//2 1//2 7//2
f 8//3 5//3 9//3
f 9//3 5//3 10//3
f 2//4 8//4 4//4
f 4//4 8//4 9//4
f 5//5 8//5 1//5
f 1//5 8//5 2//5
f 9//6 10//6 4//6
f 4//6 10//6 3//6
