# WaveFront *.obj file (generated by Autodesk ATF)

mtllib 6427b041-0565-4f9d-a6db-d85234d64d3b.mtl

g Body121

v -0.054560 -0.031500 0.000000
v -0.020785 -0.012000 0.000000
v -0.020785 -0.012000 0.040000
v -0.054560 -0.031500 0.040000
v -0.054560 0.031500 0.000000
v -0.057307 0.026171 0.000000
v -0.059535 0.020605 0.000000
v -0.061224 0.014853 0.000000
v -0.062359 0.008966 0.000000
v -0.062929 0.002998 0.000000
v -0.062929 -0.002998 0.000000
v -0.062359 -0.008966 0.000000
v -0.061224 -0.014853 0.000000
v -0.059535 -0.020605 0.000000
v -0.057307 -0.026171 0.000000
v -0.057307 -0.026171 0.040000
v -0.059535 -0.020605 0.040000
v -0.061224 -0.014853 0.040000
v -0.062359 -0.008966 0.040000
v -0.062929 -0.002998 0.040000
v -0.062929 0.002998 0.040000
v -0.062359 0.008966 0.040000
v -0.061224 0.014853 0.040000
v -0.059535 0.020605 0.040000
v -0.057307 0.026171 0.040000
v -0.054560 0.031500 0.040000
v -0.020785 0.012000 0.000000
v -0.020785 0.012000 0.040000
vt 0.000000 0.000000 0.000000
vt 0.003900 0.000000 0.000000
vt 0.000000 0.004000 0.000000
vt 0.003900 0.004000 0.000000
vt -0.004000 0.016493 0.000000
vt -0.000000 0.016493 0.000000
vt -0.004000 0.017093 0.000000
vt -0.000000 0.017093 0.000000
vt -0.000000 0.017693 0.000000
vt -0.004000 0.017693 0.000000
vt -0.000000 0.018293 0.000000
vt -0.004000 0.018293 0.000000
vt -0.000000 0.018892 0.000000
vt -0.004000 0.018892 0.000000
vt -0.000000 0.019492 0.000000
vt -0.004000 0.019492 0.000000
vt -0.000000 0.020092 0.000000
vt -0.004000 0.020092 0.000000
vt -0.000000 0.020692 0.000000
vt -0.004000 0.020692 0.000000
vt -0.000000 0.021291 0.000000
vt -0.004000 0.021291 0.000000
vt -0.000000 0.021891 0.000000
vt -0.004000 0.021891 0.000000
vt -0.000000 0.022491 0.000000
vt -0.004000 0.022491 0.000000
vt -0.004000 0.023091 0.000000
vt -0.000000 0.023091 0.000000
vt 0.000000 0.000000 0.000000
vt 0.003900 0.000000 0.000000
vt 0.000000 0.004000 0.000000
vt 0.003900 0.004000 0.000000
vt 0.000000 0.000000 0.000000
vt 0.002400 0.000000 0.000000
vt 0.000000 0.004000 0.000000
vt 0.002400 0.004000 0.000000
vt 0.002111 0.001200 0.000000
vt -0.002104 0.000300 0.000000
vt 0.002111 -0.001200 0.000000
vt -0.002104 -0.000300 0.000000
vt -0.002047 -0.000897 0.000000
vt -0.001267 0.003150 0.000000
vt -0.001541 0.002617 0.000000
vt -0.001764 0.002061 0.000000
vt -0.001933 0.001485 0.000000
vt -0.002047 0.000897 0.000000
vt -0.001933 -0.001485 0.000000
vt -0.001764 -0.002061 0.000000
vt -0.001541 -0.002617 0.000000
vt -0.001267 -0.003150 0.000000
vt -0.002111 -0.001200 0.000000
vt 0.002104 0.000300 0.000000
vt -0.002111 0.001200 0.000000
vt 0.002047 0.000897 0.000000
vt 0.001933 0.001485 0.000000
vt 0.001267 -0.003150 0.000000
vt 0.001541 -0.002617 0.000000
vt 0.001764 -0.002061 0.000000
vt 0.001933 -0.001485 0.000000
vt 0.002047 -0.000897 0.000000
vt 0.002104 -0.000300 0.000000
vt 0.001764 0.002061 0.000000
vt 0.001541 0.002617 0.000000
vt 0.001267 0.003150 0.000000
vn 0.050000 -0.086603 0.000000
vn 0.050000 -0.086603 0.000000
vn 0.050000 -0.086603 0.000000
vn 0.050000 -0.086603 0.000000
vn -0.086603 0.050000 -0.000000
vn -0.086603 0.050000 -0.000000
vn -0.090963 0.041542 -0.000000
vn -0.090963 0.041542 -0.000000
vn -0.094500 0.032707 -0.000000
vn -0.094500 0.032707 -0.000000
vn -0.097181 0.023576 -0.000000
vn -0.097181 0.023576 -0.000000
vn -0.098982 0.014231 -0.000000
vn -0.098982 0.014231 -0.000000
vn -0.099887 0.004758 -0.000000
vn -0.099887 0.004758 -0.000000
vn -0.099887 -0.004758 0.000000
vn -0.099887 -0.004758 0.000000
vn -0.098982 -0.014231 0.000000
vn -0.098982 -0.014231 0.000000
vn -0.097181 -0.023576 0.000000
vn -0.097181 -0.023576 0.000000
vn -0.094500 -0.032707 0.000000
vn -0.094500 -0.032707 0.000000
vn -0.090963 -0.041542 0.000000
vn -0.090963 -0.041542 0.000000
vn -0.086603 -0.050000 0.000000
vn -0.086603 -0.050000 0.000000
vn 0.050000 0.086603 0.000000
vn 0.050000 0.086603 0.000000
vn 0.050000 0.086603 0.000000
vn 0.050000 0.086603 0.000000
vn 0.100000 -0.000000 0.000000
vn 0.100000 -0.000000 0.000000
vn 0.100000 -0.000000 0.000000
vn 0.100000 -0.000000 0.000000
vn 0.000000 0.000000 0.100000
vn 0.000000 0.000000 0.100000
vn 0.000000 0.000000 0.100000
vn 0.000000 0.000000 0.100000
vn 0.000000 0.000000 0.100000
vn 0.000000 0.000000 0.100000
vn 0.000000 0.000000 0.100000
vn 0.000000 0.000000 0.100000
vn 0.000000 0.000000 0.100000
vn 0.000000 0.000000 0.100000
vn 0.000000 0.000000 0.100000
vn 0.000000 0.000000 0.100000
vn 0.000000 0.000000 0.100000
vn 0.000000 0.000000 0.100000
vn 0.000000 0.000000 -0.100000
vn 0.000000 0.000000 -0.100000
vn 0.000000 0.000000 -0.100000
vn 0.000000 0.000000 -0.100000
vn 0.000000 0.000000 -0.100000
vn 0.000000 0.000000 -0.100000
vn 0.000000 0.000000 -0.100000
vn 0.000000 0.000000 -0.100000
vn 0.000000 0.000000 -0.100000
vn 0.000000 0.000000 -0.100000
vn 0.000000 0.000000 -0.100000
vn 0.000000 0.000000 -0.100000
vn 0.000000 0.000000 -0.100000
vn 0.000000 0.000000 -0.100000
usemtl Steel_-_Satin
f 1/1/1 2/2/2 4/3/3
f 4/3/3 2/2/2 3/4/4
f 26/5/5 5/6/6 25/7/7
f 25/7/7 5/6/6 6/8/8
f 25/7/7 6/8/8 7/9/9
f 25/7/7 7/9/9 24/10/10
f 24/10/10 7/9/9 8/11/11
f 24/10/10 8/11/11 23/12/12
f 23/12/12 8/11/11 9/13/13
f 23/12/12 9/13/13 22/14/14
f 22/14/14 9/13/13 10/15/15
f 22/14/14 10/15/15 21/16/16
f 21/16/16 10/15/15 11/17/17
f 21/16/16 11/17/17 20/18/18
f 20/18/18 11/17/17 12/19/19
f 20/18/18 12/19/19 19/20/20
f 19/20/20 12/19/19 13/21/21
f 19/20/20 13/21/21 18/22/22
f 18/22/22 13/21/21 14/23/23
f 18/22/22 14/23/23 17/24/24
f 17/24/24 14/23/23 15/25/25
f 17/24/24 15/25/25 16/26/26
f 16/26/26 15/25/25 4/27/27
f 4/27/27 15/25/25 1/28/28
f 27/29/29 5/30/30 28/31/31
f 28/31/31 5/30/30 26/32/32
f 2/33/33 27/34/34 3/35/35
f 3/35/35 27/34/34 28/36/36
f 28/37/37 21/38/38 3/39/39
f 3/39/39 21/38/38 20/40/40
f 3/39/39 20/40/40 19/41/41
f 26/42/42 25/43/43 28/37/37
f 28/37/37 25/43/43 24/44/44
f 28/37/37 24/44/44 23/45/45
f 23/45/45 22/46/46 28/37/37
f 28/37/37 22/46/46 21/38/38
f 19/41/41 18/47/47 3/39/39
f 3/39/39 18/47/47 17/48/48
f 3/39/39 17/48/48 16/49/49
f 16/49/49 4/50/50 3/39/39
f 2/51/51 10/52/52 27/53/53
f 27/53/53 10/52/52 9/54/54
f 27/53/53 9/54/54 8/55/55
f 1/56/56 15/57/57 2/51/51
f 2/51/51 15/57/57 14/58/58
f 2/51/51 14/58/58 13/59/59
f 13/59/59 12/60/60 2/51/51
f 2/51/51 12/60/60 11/61/61
f 2/51/51 11/61/61 10/52/52
f 8/55/55 7/62/62 27/53/53
f 27/53/53 7/62/62 6/63/63
f 27/53/53 6/63/63 5/64/64
# 28 vertices
# 64 texture params
# 64 normals
# 52 facets

# 1 groups
